<?xml version="1.0" encoding="utf-8"?>
<!-- Generator: Adobe Illustrator 28.1.0, SVG Export Plug-In . SVG Version: 6.00 Build 0)  -->
<svg version="1.1" id="Calque_1" xmlns="http://www.w3.org/2000/svg" xmlns:xlink="http://www.w3.org/1999/xlink" x="0px" y="0px"
	 viewBox="0 0 91.8 76.7" style="enable-background:new 0 0 91.8 76.7;" xml:space="preserve">
<g>
	<path d="M76.4,2.6c-0.5-0.9-1.5-1.4-2.5-1.4H18.1c-1,0-2,0.5-2.5,1.4l-15,24.1C-0.1,27.9,0,29.4,1,30.4l42.8,45.4
		c0.6,0.6,1.4,0.9,2.2,0.9l0,0c0.8,0,1.6-0.3,2.2-0.9L91,30.4c0.9-1,1.1-2.4,0.4-3.6L76.4,2.6z M10.1,31.3h15.7l11.5,28.9L10.1,31.3
		z M31.4,25.3L35,7.2h21.9l3.9,18.1L31.4,25.3z M54.7,60.2l11.6-28.9h15.6L54.7,60.2z"/>
</g>
</svg>
