<svg xmlns="http://www.w3.org/2000/svg" xmlns:xlink="http://www.w3.org/1999/xlink" xml:space="preserve" style="shape-rendering:geometricPrecision;text-rendering:geometricPrecision;image-rendering:optimizeQuality;" viewBox="0 0 0.190339 0.34744125000000003" x="0px" y="0px" fill-rule="evenodd" clip-rule="evenodd"><defs><style type="text/css">
   
    .fil0 {fill:black}
   
  </style></defs><g><path class="fil0" d="M0.040874 0.260268c-0.00790945,0.00768504 -0.00962598,0.017685 -0.00555906,0.017685 0.0398976,0 0.0798031,0 0.119697,0 0.00407087,0 0.00235433,-0.01 -0.00555118,-0.017685l-0.108587 0z"/><path class="fil0" d="M0.188996 0.184965c0.000988189,-0.00564567 0.0014685,-0.0115236 0.00131496,-0.0176102 -0.00406693,-0.00242913 -0.0088622,-0.00385827 -0.0137717,-0.00385827 -0.00554724,0 -0.010437,0.00268898 -0.0143819,0.00653543 -0.00433465,0.00423622 -0.00754331,0.00984252 -0.00929921,0.0149331l0.0361378 0z"/><path class="fil0" d="M0.00230315 0.189724c0.00668898,0.029252 0.026437,0.0520118 0.039126,0.0657835l0.107469 0c0.012689,-0.0137717 0.0324449,-0.0365315 0.0391339,-0.0657835l-0.0905276 0 -0.00207087 0 -0.000161417 0 -0.00205906 0 -0.0506654 0 -0.00206693 0 -0.000165354 0 -0.00205906 0 -0.0359528 0z"/><path class="fil0" d="M4.72441e-005 0.166598c-0.000216535,0.00635039 0.00026378,0.0124882 0.0012874,0.0183661l0.0366772 0c-0.000149606,-0.00581496 -0.00288583,-0.0110906 -0.00723622,-0.0149449 -0.00454331,-0.00401969 -0.0108622,-0.00652362 -0.0178543,-0.00652362 -0.00470866,0 -0.00911417,0.00112992 -0.012874,0.00310236z"/><path class="fil0" d="M0.00542126 0.139256c-0.000688976,0.00170472 -0.00132677,0.00351181 -0.00187402,0.00543307 -0.00161417,0.00564567 -0.0026378,0.0111535 -0.00314961,0.0165079 0.00380315,-0.00158268 0.00805512,-0.00246063 0.0125236,-0.00246063 0.0081811,0 0.0156102,0.00296457 0.021,0.00773622 0.00273622,0.0024252 0.00495276,0.00531496 0.00647638,0.0085315 0.00152362,-0.00321654 0.00374016,-0.0061063 0.00647638,-0.0085315 0.00538976,-0.00477165 0.0128189,-0.00773622 0.021,-0.00773622 0.0081811,0 0.0156142,0.00296457 0.0210039,0.00773622 0.00277165,0.00246063 0.00501575,0.00540157 0.00654331,0.00867323 0.00156299,-0.00317717 0.00380315,-0.00603543 0.00651969,-0.00844094 0.00553937,-0.00490945 0.0131024,-0.0079685 0.0208898,-0.0079685 0.00693307,0 0.0129291,0.00324803 0.0176929,0.00789764 0.00394882,0.0038622 0.00706299,0.00872047 0.00916142,0.0134803 0.00209843,-0.00475984 0.00521654,-0.00961811 0.00916142,-0.0134803 0.00476378,-0.00464961 0.0107598,-0.00789764 0.0176929,-0.00789764 0.00469685,0 0.00931102,0.00111024 0.0134449,0.00307087 -0.0005,-0.00555118 -0.00152362,-0.011252 -0.00319685,-0.0171181 -0.000551181,-0.00192126 -0.00118898,-0.00372835 -0.00187402,-0.00543307l-0.179492 0z"/><path class="fil0" d="M0.0552402 0.0904213c-0.00799606,0.0191457 -0.034878,0.0203898 -0.0475984,0.0440787l0.175047 0c-0.0127205,-0.023689 -0.0395906,-0.0249331 -0.0475984,-0.0440787l-0.0798504 0z"/><path class="fil0" d="M0.0525394 0.0529567c0.00498031,0.0076063 0.00774409,0.0167441 0.00420079,0.0327047l0.0768465 0c-0.00354331,-0.0159606 -0.000783465,-0.0250984 0.00420866,-0.0327047l-0.0852559 0z"/><path class="fil0" d="M0.105091 0.170252c-0.00432677,0.00383465 -0.00718898,0.00901575 -0.00735039,0.0147126l0.0487717 0c-0.00175197,-0.00509055 -0.00496457,-0.0106969 -0.00929921,-0.0149331 -0.00394488,-0.00384646 -0.00883465,-0.00653543 -0.0143819,-0.00653543 -0.00661811,0 -0.0130394,0.00259449 -0.0177402,0.00675591z"/><path class="fil0" d="M0.0500197 0.17002c-0.00435039,0.00385433 -0.00708661,0.00912992 -0.00723622,0.0149449l0.050185 0c-0.000149606,-0.00581496 -0.00288583,-0.0110906 -0.00724016,-0.0149449 -0.00453937,-0.00401969 -0.0108583,-0.00652362 -0.0178543,-0.00652362 -0.00699213,0 -0.013311,0.00250394 -0.0178543,0.00652362z"/><path class="fil0" d="M0.0449252 0c0,0 -0.0192165,0.0114213 -0.0103465,0.0285591 0.00377559,0.00729921 0.00859055,0.0125394 0.0129016,0.0177283l0.00156693 0.00191339 0.0922441 0 0.000192913 -0.000244094c0.00462992,-0.00575984 0.0100866,-0.0113189 0.0142717,-0.0193976 0.0088622,-0.0171378 -0.0103504,-0.0285591 -0.0103504,-0.0285591l-0.10048 0z"/></g><text x="0" y="15.277953" fill="#000000" font-size="5px" font-weight="bold" font-family="'Helvetica Neue', Helvetica, Arial-Unicode, Arial, Sans-serif">Created by Abdul Wahhab</text><text x="0" y="20.277953" fill="#000000" font-size="5px" font-weight="bold" font-family="'Helvetica Neue', Helvetica, Arial-Unicode, Arial, Sans-serif">from the Noun Project</text></svg>