<?xml version="1.0" encoding="utf-8"?>
<!-- Generator: Adobe Illustrator 27.9.0, SVG Export Plug-In . SVG Version: 6.00 Build 0)  -->
<svg version="1.1" id="Calque_1" xmlns="http://www.w3.org/2000/svg" xmlns:xlink="http://www.w3.org/1999/xlink" x="0px" y="0px"
	 viewBox="0 0 72.2 84" style="enable-background:new 0 0 72.2 84;" xml:space="preserve">
<path d="M28,56.6l-3.8,3.6l-3.8-3.6l3.8-5.4L28,56.6z"/>
<path d="M69.3,62.3c-0.2-0.6-0.2-1.2-0.1-1.8l2.8-11.2c0.1-0.5,0.1-1.1,0-1.7l-6-20.6c-0.2-0.8-0.1-1.6,0.2-2.3l5.1-10.1
	c0.5-1,0.4-2.3-0.2-3.2l-4.7-7c-0.5-0.7-1.3-1.2-2.2-1.4L46.8,0C46.3,0,45.9,0,45.4,0.1L33.9,2.9c-0.6,0.1-1.2,0.1-1.8-0.1l-7.8-2.6
	c-0.7-0.2-1.5-0.2-2.3,0.1L7.7,6C7.1,6.3,6.5,6.7,6.2,7.2l-5.4,8.1c-0.4,0.5-0.6,1.2-0.6,1.8v8.1c0,0.4,0.1,0.8,0.2,1.2l5.7,14
	c0.4,1,0.3,2.1-0.3,3L1,50.5c-0.5,0.8-0.7,1.7-0.5,2.6l2.7,10.8c0.1,0.5,0.1,1.1,0,1.6L0.8,75c-0.4,1.5,0.3,3,1.7,3.7l10.1,5
	c0.5,0.2,1,0.3,1.5,0.3h38.2c0.2,0,0.4,0,0.6-0.1l14.2-2.8c1.2-0.2,2.1-1,2.5-2.1l2.3-6.9c0.2-0.7,0.2-1.4,0-2L69.3,62.3z
	 M16.5,28.3l5.5-2.6V14.2c0-1.2,1-2.2,2.2-2.2s2.2,1,2.2,2.2v6.1l3.5-1.7c1.1-0.5,2.5-0.1,3,1.1c0.5,1.1,0.1,2.5-1.1,3l-5.5,2.6
	v11.4c0,1.2-1,2.2-2.2,2.2S22,38,22,36.7v-6.1l-3.5,1.7c-0.3,0.1-0.6,0.2-1,0.2c-0.8,0-1.6-0.5-2-1.3C14.9,30.1,15.4,28.8,16.5,28.3
	z M32.6,71.3c-0.4,0.5-1,0.7-1.6,0.7c-0.6,0-1.1-0.2-1.6-0.6l-5.2-5l-5.2,5c-0.9,0.9-2.3,0.8-3.2-0.1c-0.9-0.9-0.8-2.3,0.1-3.2
	l5-4.8l-5-4.8c-0.8-0.8-0.9-2-0.3-2.9l6.7-9.6c0.8-1.2,2.8-1.2,3.7,0l6.8,9.6c0.6,0.9,0.5,2.2-0.3,2.9l-5,4.8l5,4.8
	C33.4,68.9,33.5,70.4,32.6,71.3z M43.1,21.6c-0.6-0.4-0.9-1.1-0.9-1.8s0.3-1.4,0.9-1.8l7.5-5.6c1-0.7,2.4-0.5,3.2,0.4
	c0.7,1,0.5,2.4-0.4,3.1l-5.1,3.8l5.1,3.8c0.6,0.4,0.9,1.1,0.9,1.8s-0.3,1.4-0.9,1.8l-5.1,3.8l5.1,3.8c1,0.7,1.2,2.2,0.4,3.1
	C53.4,38.7,52.7,39,52,39c-0.5,0-0.9-0.1-1.3-0.5l-7.5-5.6c-0.6-0.4-0.9-1.1-0.9-1.8s0.3-1.4,0.9-1.8l5.1-3.8L43.1,21.6z M56.5,55.3
	L50.5,61v8.7c0,1.2-1,2.2-2.2,2.2S46,71,46,69.7V61l-6.1-5.8C39,54.4,39,53,39.9,52.1c0.9-0.9,2.3-0.9,3.2-0.1l2.9,2.8v-7.6
	c0-1.2,1-2.2,2.2-2.2s2.2,1,2.2,2.2v7.6l2.9-2.8c0.9-0.9,2.3-0.8,3.2,0.1S57.4,54.4,56.5,55.3z"/>
</svg>
